<svg width="32" height="29" viewBox="0 0 32 29" fill="none" xmlns="http://www.w3.org/2000/svg">
<path d="M1 10.5682C1 8.1976 3.01297 6.27588 5.49608 6.27588C7.10953 6.27588 8.59928 5.45052 9.39978 4.11314L10 3.11035C10.3432 2.53692 10.5148 2.2502 10.7296 2.0182C11.1813 1.53039 11.7862 1.19527 12.4539 1.06293C12.7714 1 13.1173 1 13.8092 1H18.1908C18.8827 1 19.2286 1 19.5462 1.06293C20.2139 1.19527 20.8188 1.53039 21.2704 2.0182C21.4851 2.2502 21.6567 2.53692 22 3.11035L22.6002 4.11314C23.4007 5.45052 24.8904 6.27588 26.5039 6.27588C28.987 6.27588 31 8.1976 31 10.5682V20.1438C31 22.6766 31 23.9428 30.4837 24.9102C30.0296 25.7611 29.305 26.4529 28.4137 26.8864C27.4003 27.3793 26.074 27.3793 23.4211 27.3793H8.57895C5.92606 27.3793 4.59962 27.3793 3.58636 26.8864C2.69506 26.4529 1.97042 25.7611 1.51628 24.9102C1 23.9428 1 22.6766 1 20.1438V10.5682Z" stroke="white" stroke-width="2" stroke-linecap="round" stroke-linejoin="round"/>
<path d="M15.9996 22.857C19.4877 22.857 22.3154 20.1574 22.3154 16.8274C22.3154 13.4974 19.4877 10.7979 15.9996 10.7979C12.5115 10.7979 9.68384 13.4974 9.68384 16.8274C9.68384 20.1574 12.5115 22.857 15.9996 22.857Z" stroke="white" stroke-width="2"/>
<path d="M25.868 12.3053C26.5221 12.3053 27.0523 11.7991 27.0523 11.1747C27.0523 10.5504 26.5221 10.0442 25.868 10.0442C25.214 10.0442 24.6838 10.5504 24.6838 11.1747C24.6838 11.7991 25.214 12.3053 25.868 12.3053Z" stroke="white" stroke-width="2"/>
</svg>
