<svg width="142" height="92" viewBox="0 0 142 92" fill="none" xmlns="http://www.w3.org/2000/svg">
<g clip-path="url(#clip0)">
<path d="M34.8909 11.8024L37.0637 41.6974L66.3487 21.0819L34.8909 11.8024Z" fill="url(#paint0_linear)"/>
<path d="M47.5035 1.76403L34.8908 11.8026L66.3147 21.0781L47.5035 1.76403Z" fill="url(#paint1_linear)"/>
<path d="M37.0636 41.6975L66.3298 21.097L23.9855 22.0574L37.0636 41.6975Z" fill="url(#paint2_linear)"/>
<path d="M23.9854 22.0573L66.4163 21.0898L6.54101 46.4557L23.9854 22.0573Z" fill="url(#paint3_linear)"/>
<path d="M115.686 37.1344L87.1065 62.1294L135.185 73.9298L115.686 37.1344Z" fill="url(#paint4_linear)"/>
<path d="M137.579 41.3267L115.686 37.1345L135.158 73.8949L137.579 41.3267Z" fill="url(#paint5_linear)"/>
<path d="M87.1066 62.1294L135.152 73.9235L95.1451 34.7187L87.1066 62.1294Z" fill="url(#paint6_linear)"/>
<path d="M95.1449 34.7187L135.239 73.9998L54.109 36.9907L95.1449 34.7187Z" fill="url(#paint7_linear)"/>
<path d="M32.48 89.2395C31.84 89.2395 31.25 89.1645 30.71 89.0145C30.17 88.8645 29.7 88.6345 29.3 88.3245C28.91 88.0145 28.605 87.6245 28.385 87.1545C28.165 86.6845 28.055 86.1245 28.055 85.4745H29.42C29.43 85.9545 29.52 86.3645 29.69 86.7045C29.87 87.0345 30.1 87.3045 30.38 87.5145C30.67 87.7145 31.005 87.8595 31.385 87.9495C31.765 88.0395 32.17 88.0845 32.6 88.0845C32.97 88.0845 33.315 88.0345 33.635 87.9345C33.955 87.8245 34.23 87.6745 34.46 87.4845C34.7 87.2845 34.885 87.0495 35.015 86.7795C35.155 86.4995 35.225 86.1895 35.225 85.8495C35.225 85.4595 35.15 85.1445 35 84.9045C34.85 84.6545 34.65 84.4645 34.4 84.3345C34.16 84.1945 33.875 84.0995 33.545 84.0495C33.225 83.9995 32.885 83.9745 32.525 83.9745C32.375 83.9745 32.205 83.9795 32.015 83.9895C31.825 83.9895 31.675 83.9945 31.565 84.0045V82.8345C31.685 82.8545 31.845 82.8645 32.045 82.8645C32.245 82.8645 32.405 82.8645 32.525 82.8645C32.865 82.8645 33.175 82.8345 33.455 82.7745C33.745 82.7045 33.99 82.5945 34.19 82.4445C34.4 82.2945 34.56 82.0995 34.67 81.8595C34.79 81.6095 34.85 81.3045 34.85 80.9445C34.85 80.6145 34.785 80.3395 34.655 80.1195C34.535 79.8995 34.365 79.7245 34.145 79.5945C33.935 79.4545 33.69 79.3545 33.41 79.2945C33.14 79.2345 32.855 79.2045 32.555 79.2045C31.765 79.2045 31.145 79.3795 30.695 79.7295C30.245 80.0695 29.98 80.6295 29.9 81.4095H28.535C28.555 80.8395 28.67 80.3445 28.88 79.9245C29.1 79.4945 29.39 79.1445 29.75 78.8745C30.11 78.5945 30.53 78.3845 31.01 78.2445C31.5 78.1045 32.03 78.0345 32.6 78.0345C33.11 78.0345 33.585 78.0945 34.025 78.2145C34.475 78.3245 34.865 78.4995 35.195 78.7395C35.525 78.9795 35.785 79.2845 35.975 79.6545C36.165 80.0145 36.26 80.4445 36.26 80.9445C36.26 81.2345 36.21 81.5045 36.11 81.7545C36.01 82.0045 35.875 82.2295 35.705 82.4295C35.545 82.6295 35.355 82.8045 35.135 82.9545C34.925 83.0945 34.71 83.1995 34.49 83.2695V83.3145C34.84 83.3845 35.15 83.5045 35.42 83.6745C35.69 83.8345 35.915 84.0295 36.095 84.2595C36.275 84.4895 36.41 84.7445 36.5 85.0245C36.59 85.3045 36.635 85.5895 36.635 85.8795C36.635 86.2095 36.56 86.5695 36.41 86.9595C36.26 87.3495 36.015 87.7145 35.675 88.0545C35.345 88.3945 34.915 88.6795 34.385 88.9095C33.865 89.1295 33.23 89.2395 32.48 89.2395ZM37.3595 87.8745H38.2745C38.3845 87.6645 38.4945 87.3795 38.6045 87.0195C38.7245 86.6495 38.8295 86.2445 38.9195 85.8045C39.0195 85.3545 39.0995 84.8795 39.1595 84.3795C39.2195 83.8795 39.2495 83.3895 39.2495 82.9095V81.2445H44.8595V87.8745H45.9095V91.3545H44.6945V88.9995H38.5745V91.3545H37.3595V87.8745ZM43.5845 87.8745V82.3695H40.4945V83.0295C40.4945 83.5195 40.4645 84.0095 40.4045 84.4995C40.3545 84.9795 40.2845 85.4345 40.1945 85.8645C40.1045 86.2945 40.0045 86.6845 39.8945 87.0345C39.7945 87.3845 39.6945 87.6645 39.5945 87.8745H43.5845ZM50.4075 89.1645C49.7875 89.1645 49.2425 89.0645 48.7725 88.8645C48.3125 88.6645 47.9275 88.3845 47.6175 88.0245C47.3075 87.6645 47.0725 87.2345 46.9125 86.7345C46.7625 86.2345 46.6875 85.6895 46.6875 85.0995C46.6875 84.5195 46.7775 83.9845 46.9575 83.4945C47.1375 82.9945 47.3875 82.5645 47.7075 82.2045C48.0375 81.8445 48.4225 81.5645 48.8625 81.3645C49.3125 81.1645 49.8025 81.0645 50.3325 81.0645C51.0225 81.0645 51.5925 81.2095 52.0425 81.4995C52.5025 81.7795 52.8675 82.1395 53.1375 82.5795C53.4175 83.0195 53.6075 83.4995 53.7075 84.0195C53.8175 84.5395 53.8625 85.0345 53.8425 85.5045H48.0375C48.0275 85.8445 48.0675 86.1695 48.1575 86.4795C48.2475 86.7795 48.3925 87.0495 48.5925 87.2895C48.7925 87.5195 49.0475 87.7045 49.3575 87.8445C49.6675 87.9845 50.0325 88.0545 50.4525 88.0545C50.9925 88.0545 51.4325 87.9295 51.7725 87.6795C52.1225 87.4295 52.3525 87.0495 52.4625 86.5395H53.7225C53.5525 87.4195 53.1775 88.0795 52.5975 88.5195C52.0175 88.9495 51.2875 89.1645 50.4075 89.1645ZM52.4925 84.3795C52.4725 84.0795 52.4025 83.7945 52.2825 83.5245C52.1725 83.2545 52.0175 83.0245 51.8175 82.8345C51.6275 82.6345 51.3975 82.4795 51.1275 82.3695C50.8675 82.2495 50.5775 82.1895 50.2575 82.1895C49.9275 82.1895 49.6275 82.2495 49.3575 82.3695C49.0975 82.4795 48.8725 82.6345 48.6825 82.8345C48.4925 83.0345 48.3425 83.2695 48.2325 83.5395C48.1225 83.7995 48.0575 84.0795 48.0375 84.3795H52.4925ZM58.3741 89.1645C57.7841 89.1645 57.2591 89.0695 56.7991 88.8795C56.3491 88.6895 55.9691 88.4195 55.6591 88.0695C55.3591 87.7195 55.1291 87.3045 54.9691 86.8245C54.8191 86.3445 54.7441 85.8095 54.7441 85.2195C54.7441 84.6395 54.8191 84.0995 54.9691 83.5995C55.1191 83.0895 55.3441 82.6495 55.6441 82.2795C55.9541 81.8995 56.3341 81.6045 56.7841 81.3945C57.2441 81.1745 57.7841 81.0645 58.4041 81.0645C58.8441 81.0645 59.2541 81.1195 59.6341 81.2295C60.0241 81.3295 60.3641 81.4895 60.6541 81.7095C60.9541 81.9295 61.1991 82.2095 61.3891 82.5495C61.5791 82.8795 61.6991 83.2745 61.7491 83.7345H60.4291C60.3291 83.2445 60.1191 82.8645 59.7991 82.5945C59.4791 82.3245 59.0491 82.1895 58.5091 82.1895C58.0491 82.1895 57.6641 82.2745 57.3541 82.4445C57.0441 82.6145 56.7941 82.8395 56.6041 83.1195C56.4241 83.3995 56.2941 83.7245 56.2141 84.0945C56.1341 84.4545 56.0941 84.8295 56.0941 85.2195C56.0941 85.5795 56.1341 85.9295 56.2141 86.2695C56.3041 86.6095 56.4391 86.9145 56.6191 87.1845C56.7991 87.4445 57.0291 87.6545 57.3091 87.8145C57.5991 87.9745 57.9491 88.0545 58.3591 88.0545C58.9891 88.0545 59.4791 87.8895 59.8291 87.5595C60.1891 87.2295 60.4091 86.7645 60.4891 86.1645H61.7941C61.6541 87.1345 61.2991 87.8795 60.7291 88.3995C60.1591 88.9095 59.3741 89.1645 58.3741 89.1645ZM63.2957 81.2445H64.5707V84.2145H67.3307C68.0907 84.2145 68.7007 84.4245 69.1607 84.8445C69.6207 85.2545 69.8507 85.8345 69.8507 86.5845C69.8507 87.3145 69.6307 87.8995 69.1907 88.3395C68.7507 88.7795 68.1507 88.9995 67.3907 88.9995H63.2957V81.2445ZM66.9257 87.8745C67.9957 87.8745 68.5307 87.4445 68.5307 86.5845C68.5307 85.7345 67.9957 85.3095 66.9257 85.3095H64.5707V87.8745H66.9257ZM75.4082 81.2445H81.7382V88.9995H80.4632V82.3695H76.6832V88.9995H75.4082V81.2445ZM84.4503 92.0895C84.3003 92.0895 84.1503 92.0795 84.0003 92.0595C83.8503 92.0395 83.7053 92.0045 83.5653 91.9545V90.7845C83.6853 90.8245 83.8053 90.8645 83.9253 90.9045C84.0553 90.9445 84.1853 90.9645 84.3153 90.9645C84.5753 90.9645 84.7853 90.9045 84.9453 90.7845C85.1053 90.6645 85.2453 90.4895 85.3653 90.2595L85.8903 88.9545L82.8153 81.2445H84.2553L86.5203 87.5895H86.5503L88.7253 81.2445H90.0753L86.7003 90.0195C86.5503 90.3995 86.4003 90.7195 86.2503 90.9795C86.1103 91.2395 85.9503 91.4495 85.7703 91.6095C85.6003 91.7795 85.4053 91.8995 85.1853 91.9695C84.9753 92.0495 84.7303 92.0895 84.4503 92.0895ZM94.3653 89.1645C93.7753 89.1645 93.2503 89.0695 92.7903 88.8795C92.3403 88.6895 91.9603 88.4195 91.6503 88.0695C91.3503 87.7195 91.1203 87.3045 90.9603 86.8245C90.8103 86.3445 90.7353 85.8095 90.7353 85.2195C90.7353 84.6395 90.8103 84.0995 90.9603 83.5995C91.1103 83.0895 91.3353 82.6495 91.6353 82.2795C91.9453 81.8995 92.3253 81.6045 92.7753 81.3945C93.2353 81.1745 93.7753 81.0645 94.3953 81.0645C94.8353 81.0645 95.2453 81.1195 95.6253 81.2295C96.0153 81.3295 96.3553 81.4895 96.6453 81.7095C96.9453 81.9295 97.1903 82.2095 97.3803 82.5495C97.5703 82.8795 97.6903 83.2745 97.7403 83.7345H96.4203C96.3203 83.2445 96.1103 82.8645 95.7903 82.5945C95.4703 82.3245 95.0403 82.1895 94.5003 82.1895C94.0403 82.1895 93.6553 82.2745 93.3453 82.4445C93.0353 82.6145 92.7853 82.8395 92.5953 83.1195C92.4153 83.3995 92.2853 83.7245 92.2053 84.0945C92.1253 84.4545 92.0853 84.8295 92.0853 85.2195C92.0853 85.5795 92.1253 85.9295 92.2053 86.2695C92.2953 86.6095 92.4303 86.9145 92.6103 87.1845C92.7903 87.4445 93.0203 87.6545 93.3003 87.8145C93.5903 87.9745 93.9403 88.0545 94.3503 88.0545C94.9803 88.0545 95.4703 87.8895 95.8203 87.5595C96.1803 87.2295 96.4003 86.7645 96.4803 86.1645H97.7853C97.6453 87.1345 97.2903 87.8795 96.7203 88.3995C96.1503 88.9095 95.3653 89.1645 94.3653 89.1645ZM101.087 82.3695H98.312V81.2445H105.137V82.3695H102.362V88.9995H101.087V82.3695ZM109.5 89.1645C108.88 89.1645 108.335 89.0645 107.865 88.8645C107.405 88.6545 107.015 88.3695 106.695 88.0095C106.375 87.6395 106.135 87.2095 105.975 86.7195C105.815 86.2295 105.735 85.6995 105.735 85.1295C105.735 84.5595 105.815 84.0295 105.975 83.5395C106.135 83.0395 106.375 82.6095 106.695 82.2495C107.015 81.8795 107.405 81.5895 107.865 81.3795C108.335 81.1695 108.88 81.0645 109.5 81.0645C110.11 81.0645 110.65 81.1695 111.12 81.3795C111.59 81.5895 111.985 81.8795 112.305 82.2495C112.625 82.6095 112.865 83.0395 113.025 83.5395C113.185 84.0295 113.265 84.5595 113.265 85.1295C113.265 85.6995 113.185 86.2295 113.025 86.7195C112.865 87.2095 112.625 87.6395 112.305 88.0095C111.985 88.3695 111.59 88.6545 111.12 88.8645C110.65 89.0645 110.11 89.1645 109.5 89.1645ZM109.5 88.0545C109.83 88.0545 110.14 87.9895 110.43 87.8595C110.73 87.7295 110.99 87.5445 111.21 87.3045C111.43 87.0545 111.6 86.7495 111.72 86.3895C111.85 86.0195 111.915 85.5995 111.915 85.1295C111.915 84.6595 111.85 84.2445 111.72 83.8845C111.6 83.5145 111.43 83.2045 111.21 82.9545C110.99 82.7045 110.73 82.5145 110.43 82.3845C110.14 82.2545 109.83 82.1895 109.5 82.1895C109.17 82.1895 108.855 82.2545 108.555 82.3845C108.265 82.5145 108.01 82.7045 107.79 82.9545C107.57 83.2045 107.395 83.5145 107.265 83.8845C107.145 84.2445 107.085 84.6595 107.085 85.1295C107.085 85.5995 107.145 86.0195 107.265 86.3895C107.395 86.7495 107.57 87.0545 107.79 87.3045C108.01 87.5445 108.265 87.7295 108.555 87.8595C108.855 87.9895 109.17 88.0545 109.5 88.0545Z" fill="black"/>
</g>
<defs>
<linearGradient id="paint0_linear" x1="49.7068" y1="0.082576" x2="38.2855" y2="43.2809" gradientUnits="userSpaceOnUse">
<stop stop-color="#1E6CFF"/>
<stop offset="1" stop-color="#A9C7FF"/>
</linearGradient>
<linearGradient id="paint1_linear" x1="34.8609" y1="11.7648" x2="66.3297" y2="21.097" gradientUnits="userSpaceOnUse">
<stop stop-color="#1E6CFF"/>
<stop offset="1" stop-color="#A9C7FF"/>
</linearGradient>
<linearGradient id="paint2_linear" x1="50.514" y1="1.10313" x2="32.1245" y2="57.1256" gradientUnits="userSpaceOnUse">
<stop stop-color="#1E6CFF"/>
<stop offset="1" stop-color="#A9C7FF"/>
</linearGradient>
<linearGradient id="paint3_linear" x1="1.37974" y1="39.9698" x2="66.3974" y2="21.1048" gradientUnits="userSpaceOnUse">
<stop stop-color="#1E6CFF"/>
<stop offset="1" stop-color="#A9C7FF"/>
</linearGradient>
<linearGradient id="paint4_linear" x1="141.329" y1="42.1143" x2="90.3495" y2="71.0752" gradientUnits="userSpaceOnUse">
<stop stop-color="#1E6CFF"/>
<stop offset="1" stop-color="#A9C7FF"/>
</linearGradient>
<linearGradient id="paint5_linear" x1="115.697" y1="37.0773" x2="130.256" y2="75.766" gradientUnits="userSpaceOnUse">
<stop stop-color="#1E6CFF"/>
<stop offset="1" stop-color="#A9C7FF"/>
</linearGradient>
<linearGradient id="paint6_linear" x1="141.029" y1="43.659" x2="71.0176" y2="77.9739" gradientUnits="userSpaceOnUse">
<stop stop-color="#1E6CFF"/>
<stop offset="1" stop-color="#A9C7FF"/>
</linearGradient>
<linearGradient id="paint7_linear" x1="55.9873" y1="27.1441" x2="130.151" y2="80.9606" gradientUnits="userSpaceOnUse">
<stop stop-color="#1E6CFF"/>
<stop offset="1" stop-color="#A9C7FF"/>
</linearGradient>
<clipPath id="clip0">
<rect width="140.877" height="91.9996" fill="white" transform="translate(0.561523)"/>
</clipPath>
</defs>
</svg>
